<?xml version="1.0" encoding="UTF-8" standalone="no"?>
<!-- Created with Inkscape (http://www.inkscape.org/) -->

<svg
   xmlns:dc="http://purl.org/dc/elements/1.1/"
   xmlns:cc="http://creativecommons.org/ns#"
   xmlns:rdf="http://www.w3.org/1999/02/22-rdf-syntax-ns#"
   xmlns:svg="http://www.w3.org/2000/svg"
   xmlns="http://www.w3.org/2000/svg"
   xmlns:sodipodi="http://sodipodi.sourceforge.net/DTD/sodipodi-0.dtd"
   xmlns:inkscape="http://www.inkscape.org/namespaces/inkscape"
   version="1.1"
   id="svg869"
   width="396"
   height="512"
   viewBox="0 0 396 512"
   sodipodi:docname="Hail_A_Taxi-512.svg"
   inkscape:version="0.92.4 (unknown)">
  <metadata
     id="metadata875">
    <rdf:RDF>
      <cc:Work
         rdf:about="">
        <dc:format>image/svg+xml</dc:format>
        <dc:type
           rdf:resource="http://purl.org/dc/dcmitype/StillImage" />
        <dc:title></dc:title>
      </cc:Work>
    </rdf:RDF>
  </metadata>
  <defs
     id="defs873" />
  <sodipodi:namedview
     pagecolor="#ffffff"
     bordercolor="#666666"
     borderopacity="1"
     objecttolerance="10"
     gridtolerance="10"
     guidetolerance="10"
     inkscape:pageopacity="0"
     inkscape:pageshadow="2"
     inkscape:window-width="1366"
     inkscape:window-height="713"
     id="namedview871"
     showgrid="false"
     inkscape:zoom="1.078125"
     inkscape:cx="197.07246"
     inkscape:cy="256"
     inkscape:window-x="0"
     inkscape:window-y="27"
     inkscape:window-maximized="1"
     inkscape:current-layer="svg869" />
  <g
     id="g879"
     transform="translate(15.76812,-0.9275364)">
    <path
       style="fill:currentColor"
       d="M 109.17915,507.93166 C 101.88803,504.28824 96.770514,498.67532 94.008,491.29183 92.030644,486.00688 92,483.67248 92,338.3268 V 190.72862 L 83.114585,175.11431 C 78.227606,166.52644 65.017656,143.3 53.75914,123.5 42.500624,103.7 26.630782,75.8 18.492824,61.5 10.354866,47.2 2.874699,33.7 1.8702304,31.5 -4.5024497,17.542473 6.589254,1 22.320435,1 c 8.078015,0 14.533512,3.5350306 19.021111,10.415962 1.823636,2.796221 18.94026,32.600686 38.036942,66.232146 l 34.721242,61.148112 28.20013,0.49852 c 31.36014,0.55439 37.25152,1.40184 49.20014,7.07719 11.90216,5.65329 13.1451,7.39414 32.98111,46.19262 9.82355,19.2145 19.379,37.82297 21.23432,41.35216 l 3.37333,6.4167 -0.29438,48.0833 L 248.5,336.5 l -2.65675,5 c -5.60574,10.54998 -11.20706,13.5 -25.63299,13.5 -6.41416,0 -11.495,0.55915 -14.55496,1.60178 -5.68642,1.93756 -12.45201,8.41218 -15.76752,15.08938 L 187.5,376.5 l -0.25748,60 c -0.16712,38.94485 0.11588,62.24802 0.80646,66.40609 1.29899,7.82145 1.04637,8.05768 -8.63926,8.0786 -10.90047,0.0235 -19.4305,-4.77852 -26.65972,-15.00833 L 151,493.5 l -1.75,2.47636 c -4.21647,5.96658 -7.77441,9.12959 -13.4722,11.97681 C 130.68119,510.49998 128.50214,511 122.5,511 c -6.01315,0 -8.17884,-0.49885 -13.32085,-3.06834 z m 98.74393,0.14526 c -1.98221,-1.9822 -2.95505,-3.99393 -3.0224,-6.25 -0.0546,-1.8298 -0.1033,-30.21913 -0.10815,-63.08738 -0.01,-64.51797 -0.1389,-62.87825 5.1854,-65.72773 1.21431,-0.64988 10.80458,-1.08526 24.84072,-1.12772 12.57452,-0.038 23.31823,-0.36502 23.8749,-0.72663 0.55667,-0.3616 1.25776,-3.4378 1.55798,-6.836 0.94913,-10.74328 7.29317,-19.51797 17.41027,-24.08087 3.19296,-1.44004 6.94825,-1.73186 22.3382,-1.73582 17.19759,-0.004 18.852,0.15724 23.5,2.29645 9.78764,4.50471 16.47061,13.97881 16.49023,23.37735 0.0161,7.68993 -0.24782,7.61255 26.23156,7.69201 l 23.27821,0.0699 3.25,3.51509 3.25,3.5151 v 62.61468 62.61469 l -3.4,3.4 -3.4,3.4 h -89.17692 -89.17693 l -2.92307,-2.92308 z M 321.25,371.38871 c 2.04908,-0.61295 2.41481,-6.22022 0.63296,-9.70445 -2.67173,-5.22431 -4.23682,-5.6382 -21.41045,-5.66202 -17.53408,-0.0243 -19.08762,0.39899 -21.97822,5.9888 -1.99824,3.86418 -1.88862,7.66805 0.25571,8.87273 1.79495,1.0084 39.32625,1.45431 42.5,0.50494 z M 137,116.42107 c -9.66394,-2.54304 -18.00794,-7.4242 -25.50241,-14.91866 -25.511565,-25.511572 -20.940103,-66.748068 9.587,-86.478685 36.78587,-23.7758562 85.80788,3.340806 85.90063,47.516176 0.0526,25.053638 -17.72492,47.646429 -42.44532,53.942189 -7.39739,1.88396 -20.25696,1.85546 -27.5399,-0.061 z"
       id="path881"
       inkscape:connector-curvature="0" />
  </g>
</svg>
